<svg xmlns="http://www.w3.org/2000/svg" viewBox="0 0 1800 1100" preserveAspectRatio="xMidYMid slice">
  <defs>
    <filter id="softNoise">
      <feTurbulence type="fractalNoise" baseFrequency="0.006 0.014" numOctaves="4" seed="17"/>
      <feColorMatrix type="matrix" values="0.55 0 0 0 0.03 0 0.42 0 0 0.04 0 0 0.6 0 0.12 0 0 0 0.7 0"/>
      <feGaussianBlur stdDeviation="10"/>
    </filter>
    <linearGradient id="goldVeil" x1="0" y1="0" x2="1" y2="1">
      <stop offset="0" stop-color="#040714" stop-opacity="0"/>
      <stop offset="0.45" stop-color="#d4a373" stop-opacity="0.22"/>
      <stop offset="1" stop-color="#040714" stop-opacity="0"/>
    </linearGradient>
    <linearGradient id="purpleVeil" x1="1" y1="0" x2="0" y2="1">
      <stop offset="0" stop-color="#7b2cbf" stop-opacity="0.24"/>
      <stop offset="0.55" stop-color="#80e9ff" stop-opacity="0.1"/>
      <stop offset="1" stop-color="#040714" stop-opacity="0"/>
    </linearGradient>
  </defs>
  <rect width="1800" height="1100" fill="#040714"/>
  <rect width="1800" height="1100" filter="url(#softNoise)" opacity="0.52"/>
  <path d="M-70 715 C 285 510, 425 800, 770 560 S 1380 305, 1870 420 L 1870 1120 L -70 1120 Z" fill="url(#goldVeil)" opacity="0.72"/>
  <path d="M-60 210 C 260 80, 495 290, 730 230 C 1080 140, 1270 -60, 1860 120 L 1860 560 C 1330 380, 980 455, 650 408 C 360 365, 160 260, -60 390 Z" fill="url(#purpleVeil)" opacity="0.72"/>
  <g opacity="0.72">
    <circle cx="270" cy="170" r="1.7" fill="#ffddb0"/>
    <circle cx="510" cy="280" r="1.2" fill="#f8f9fa"/>
    <circle cx="1030" cy="180" r="1.4" fill="#80e9ff"/>
    <circle cx="1430" cy="320" r="1.6" fill="#ffddb0"/>
    <circle cx="1580" cy="690" r="1.3" fill="#f8f9fa"/>
    <circle cx="680" cy="790" r="1.5" fill="#ffddb0"/>
    <circle cx="310" cy="910" r="1.1" fill="#80e9ff"/>
    <circle cx="1190" cy="890" r="1.4" fill="#f8f9fa"/>
  </g>
</svg>
